<?xml version="1.0" standalone="no"?>
<!DOCTYPE svg PUBLIC "-//W3C//DTD SVG 20010904//EN"
 "http://www.w3.org/TR/2001/REC-SVG-20010904/DTD/svg10.dtd">
<svg version="1.0" xmlns="http://www.w3.org/2000/svg"
 width="444.000000pt" height="447.000000pt" viewBox="0 0 444.000000 447.000000"
 preserveAspectRatio="xMidYMid meet">

<g transform="translate(0.000000,447.000000) scale(0.100000,-0.100000)"
fill="#000000" stroke="none">
<path d="M2505 3728 c-47 -92 -91 -158 -104 -156 -10 2 -14 20 -15 63 -1 55
-3 61 -29 73 -16 8 -52 17 -80 21 -57 7 -157 -5 -157 -20 0 -5 -8 -9 -18 -9
-10 0 -22 -4 -28 -8 -5 -5 -28 -16 -51 -25 -23 -9 -75 -40 -114 -68 -68 -48
-148 -86 -150 -71 -8 80 -47 86 -149 23 -87 -53 -184 -144 -241 -224 -27 -40
-69 -92 -92 -117 -64 -68 -76 -90 -65 -122 8 -23 13 -26 28 -18 30 16 34 -20
11 -95 -12 -37 -18 -77 -15 -90 3 -13 -4 -66 -16 -117 -26 -113 -22 -149 30
-256 38 -80 60 -102 99 -102 21 0 21 4 21 224 l0 224 26 32 c44 52 92 70 186
70 97 1 163 13 199 39 47 35 424 46 754 24 99 -7 194 -17 210 -21 32 -8 80
-72 156 -207 30 -54 39 -81 39 -117 0 -38 6 -54 31 -82 16 -19 39 -38 49 -41
10 -3 25 -23 33 -44 36 -88 92 -121 206 -121 l51 0 0 -102 c0 -129 6 -140 53
-99 70 62 91 168 42 216 -13 14 -33 25 -44 25 -28 0 -37 20 -9 21 13 0 17 3
11 6 -14 5 -18 33 -5 33 5 0 9 7 9 15 0 9 -5 14 -11 12 -14 -6 -18 91 -5 115
5 10 18 18 28 18 19 0 80 60 101 99 7 13 7 28 2 39 -11 21 -5 43 16 59 10 9
15 31 16 75 1 82 -27 131 -141 249 -45 47 -83 91 -83 97 0 6 -6 15 -13 19 -15
9 -62 83 -63 98 0 6 -8 35 -18 65 -42 124 -132 206 -281 257 -52 18 -107 26
-210 33 -77 5 -150 12 -162 15 -17 6 -25 1 -38 -27z m-174 -125 c52 -31 42
-34 -114 -37 -41 -1 -60 3 -67 14 -8 12 -1 17 33 27 62 17 115 15 148 -4z
m-228 -36 c42 -44 128 -168 122 -177 -10 -16 -50 -12 -77 9 -53 42 -105 181
-67 181 6 0 16 -6 22 -13z m418 -217 c43 0 35 -61 -10 -80 -37 -15 -51 -7 -51
31 0 41 18 75 33 60 6 -6 19 -11 28 -11z m271 -37 c10 -9 18 -19 18 -23 0 -17
-33 -19 -57 -3 -24 16 -24 17 -7 30 23 16 24 16 46 -4z m98 -255 c63 -77 81
-105 90 -139 5 -21 14 -56 20 -77 5 -21 23 -51 39 -66 21 -20 32 -43 37 -73 8
-57 -2 -67 -15 -15 -6 21 -25 56 -41 77 -17 21 -35 56 -42 79 -6 23 -15 45
-20 51 -4 5 -8 17 -8 27 0 10 -25 43 -56 72 -32 31 -54 59 -50 65 9 15 33 14
46 -1z m320 -576 c0 -13 -4 -20 -10 -17 -5 3 -10 21 -10 38 0 24 3 28 10 17 5
-8 10 -25 10 -38z"/>
<path d="M2005 2896 c-100 -33 -105 -36 -105 -56 0 -31 17 -32 70 -5 79 40
165 58 245 52 39 -3 79 -8 90 -12 20 -7 20 -6 0 9 -51 43 -191 48 -300 12z"/>
<path d="M1498 2844 c-24 -12 -58 -60 -58 -79 0 -4 14 5 31 19 24 21 41 26 84
26 29 0 69 -7 90 -16 41 -17 59 -9 53 22 -7 39 -145 58 -200 28z"/>
<path d="M2026 2691 c-20 -8 -24 -19 -33 -82 -4 -31 0 -39 28 -63 29 -25 39
-28 83 -23 78 7 126 71 96 128 -8 15 -7 21 5 25 8 3 12 10 9 15 -6 11 -161 11
-188 0z m126 -18 c23 -21 23 -36 -2 -58 -36 -32 -100 -16 -100 26 0 44 66 65
102 32z"/>
<path d="M1530 2643 c-27 -10 -50 -35 -43 -47 4 -6 6 -28 4 -49 -5 -78 53
-113 104 -63 31 31 40 67 29 119 -8 39 -11 42 -44 44 -19 1 -42 -1 -50 -4z
m50 -29 c18 -21 1 -69 -24 -69 -31 0 -42 29 -23 59 20 30 29 32 47 10z"/>
<path d="M1520 2141 c-21 -39 9 -64 93 -76 28 -4 119 1 234 15 267 31 253 28
253 51 0 11 -7 22 -16 26 -9 3 -89 -2 -178 -11 -200 -22 -295 -22 -335 -1 -38
19 -38 19 -51 -4z"/>
<path d="M2615 1309 c-77 -78 -79 -80 -115 -139 -31 -49 -59 -89 -92 -129 -9
-11 -13 -9 -24 10 -19 35 -17 47 14 74 17 15 22 24 13 25 -8 0 -22 -7 -32 -16
-17 -15 -20 -15 -44 4 -45 35 -98 1 -93 -60 3 -46 -14 -65 -117 -126 -68 -42
-108 -52 -120 -31 -4 6 -7 27 -8 46 -1 31 5 42 43 75 25 21 90 69 145 106 100
68 215 170 215 192 0 7 -14 3 -35 -10 -40 -25 -149 -44 -365 -65 -157 -15
-386 -13 -403 4 -6 6 -20 11 -31 11 -17 0 -16 -4 12 -33 30 -31 95 -73 286
-185 90 -53 107 -80 85 -134 -11 -28 -15 -30 -50 -24 -39 6 -94 33 -161 77
-34 22 -37 27 -32 59 13 81 -39 121 -102 78 -19 -13 -34 -26 -34 -30 0 -4 -7
-5 -16 -1 -12 4 -14 0 -9 -18 3 -14 0 -32 -8 -43 -13 -17 -17 -14 -57 45 -49
74 -80 109 -133 151 -56 45 -58 26 -3 -24 26 -23 75 -83 108 -132 l60 -91 -2
-150 c0 -82 -4 -153 -8 -157 -5 -4 -23 -3 -42 2 -41 12 -72 0 -88 -34 -13 -29
10 -85 35 -87 58 -5 160 5 179 18 36 23 53 87 55 203 l1 105 129 -2 c70 -1
133 -4 138 -8 6 -3 22 2 36 11 19 12 31 14 53 6 19 -6 47 -6 90 3 34 7 94 15
134 16 l73 4 6 -80 c11 -127 40 -176 115 -193 58 -13 137 17 154 58 10 25 10
34 -5 56 -16 24 -21 26 -66 21 -60 -7 -60 -6 -83 122 -17 91 -17 94 2 115 20
21 92 125 92 132 0 11 73 116 102 146 57 59 71 78 62 78 -5 0 -32 -23 -59 -51z
m-320 -41 c-3 -7 -56 -48 -118 -90 -61 -43 -132 -95 -157 -116 l-45 -39 -35
28 c-19 15 -89 56 -154 92 -66 35 -122 69 -124 75 -2 7 41 11 130 12 73 0 176
6 228 11 218 23 240 26 247 32 11 12 33 7 28 -5z m27 -165 c29 -34 38 -63 63
-195 30 -157 43 -183 88 -173 64 15 72 12 72 -20 0 -25 -6 -31 -38 -44 -30
-11 -45 -12 -77 -2 -52 15 -74 64 -95 206 -10 71 -25 129 -41 163 -26 53 -26
82 -1 82 8 0 21 -8 29 -17z m-654 -36 c2 -11 -8 -31 -21 -45 -40 -42 -47 -74
-47 -205 0 -141 -11 -189 -50 -229 -32 -32 -71 -36 -125 -14 -26 11 -35 21
-35 39 0 31 15 37 67 27 23 -4 47 -4 54 0 17 11 28 88 28 202 1 111 19 178 59
221 29 31 65 33 70 4z m612 -87 c0 -26 -5 -31 -41 -40 -22 -6 -49 -10 -60 -8
-17 2 -11 10 28 40 58 46 73 47 73 8z m-490 -72 c0 -11 -84 -10 -114 2 -18 6
-26 17 -26 33 0 45 18 47 81 9 32 -21 58 -40 59 -44z"/>
<path d="M1760 1331 c-26 -17 7 -21 115 -12 98 8 99 8 29 10 -39 0 -84 3 -100
6 -16 3 -36 1 -44 -4z"/>
<path d="M3152 1154 c-17 -14 -37 -35 -43 -46 l-11 -21 28 21 c37 26 80 72 68
72 -5 0 -24 -12 -42 -26z"/>
<path d="M883 854 c-24 -26 -43 -55 -43 -65 0 -11 -4 -19 -8 -19 -5 0 -9 -7
-9 -15 0 -8 4 -12 9 -9 4 3 8 -1 9 -8 0 -7 4 -3 9 10 5 12 16 22 25 22 8 0 15
7 15 15 0 8 7 15 15 15 9 0 12 6 9 15 -4 8 -1 15 5 15 6 0 11 7 11 15 0 8 4
15 9 15 5 0 11 9 14 20 9 35 -25 22 -70 -26z"/>
</g>
</svg>
